<?xml version="1.0" encoding="utf-8"?>
<!-- Generator: Adobe Illustrator 19.1.0, SVG Export Plug-In . SVG Version: 6.00 Build 0)  -->
<svg version="1.1" id="Layer_1" xmlns="http://www.w3.org/2000/svg" xmlns:xlink="http://www.w3.org/1999/xlink" x="0px" y="0px"
	 width="170.3px" height="163.5px" viewBox="0 0 170.3 163.5" style="enable-background:new 0 0 170.3 163.5;" xml:space="preserve"
	>
<style type="text/css">
	.st0{fill:#C7A04A;}
	.st1{fill:#D71920;}
</style>
<g>
	<g>
		<g>
			<g>
				<g>
					<g>
						<path class="st0" d="M59.9,45.1c0.1-0.2,0.1-0.4,0.2-0.8c0.1-0.3,0.1-0.7,0.1-1.1v-4.3c0-0.2,0-0.5,0-0.7c0-0.2,0-0.5,0-0.9h0
							c-0.2,0.2-0.4,0.3-0.5,0.5c-0.2,0.2-0.4,0.3-0.5,0.5c-0.2,0.2-0.3,0.3-0.5,0.4c-0.1,0.1-0.3,0.2-0.3,0.3
							c-0.2-0.2-0.4-0.4-0.6-0.6c0.3-0.3,0.6-0.7,1-1.1c0.4-0.4,0.7-0.8,1-1.2c0-0.1,0.1-0.2,0.2-0.4s0.2-0.5,0.2-0.7h2.3
							c0,0.1,0,0.3,0,0.5c0,0.2,0,0.4,0,0.7c0,0.2,0,0.5,0,0.7c0,0.3,0,0.5,0,0.7v0.6c0,0.3,0,0.6,0,0.9c0,0.2,0,0.5,0,0.7
							c0,0.2,0,0.4,0,0.5c0,0.2,0,0.4,0,0.6c0,0.2,0,0.4,0,0.7s0,0.5,0,0.9v0.3c0,0.5,0,0.9,0.1,1.3c0,0.4,0.1,0.8,0.2,1.2H59.9z"/>
						<path class="st0" d="M72,42.2c0,0.5-0.1,0.9-0.3,1.3s-0.5,0.7-0.8,1c-0.3,0.3-0.7,0.5-1.1,0.6c-0.4,0.1-0.9,0.2-1.3,0.2
							c-0.4,0-0.8-0.1-1.1-0.2s-0.7-0.3-1-0.5c-0.3-0.2-0.5-0.5-0.7-0.8c-0.2-0.3-0.3-0.7-0.3-1.1c0-0.3,0.1-0.6,0.2-0.9
							c0.1-0.3,0.2-0.5,0.4-0.8c0.2-0.2,0.4-0.5,0.6-0.6c0.2-0.2,0.5-0.4,0.7-0.5c-0.2-0.2-0.4-0.3-0.6-0.5
							c-0.2-0.2-0.4-0.4-0.5-0.6c-0.1-0.2-0.2-0.4-0.3-0.7c-0.1-0.2-0.1-0.5-0.1-0.9c0-0.4,0.1-0.7,0.2-1.1c0.2-0.3,0.4-0.6,0.6-0.9
							c0.3-0.3,0.6-0.5,0.9-0.6c0.4-0.1,0.7-0.2,1.2-0.2c0.4,0,0.8,0.1,1.2,0.2c0.4,0.1,0.7,0.2,1,0.4c0.3,0.2,0.5,0.4,0.7,0.7
							c0.2,0.3,0.2,0.6,0.2,1c0,0.3,0,0.5-0.1,0.8c-0.1,0.2-0.2,0.5-0.4,0.7s-0.3,0.4-0.5,0.6c-0.2,0.2-0.4,0.3-0.6,0.5
							c0.3,0.2,0.6,0.4,0.8,0.5s0.5,0.4,0.7,0.6c0.2,0.2,0.4,0.4,0.5,0.7C71.9,41.5,72,41.8,72,42.2z M70.2,42.6
							c0-0.2-0.1-0.4-0.2-0.7c-0.1-0.2-0.3-0.4-0.5-0.6c-0.2-0.2-0.4-0.3-0.7-0.5c-0.2-0.1-0.4-0.3-0.6-0.4
							c-0.2,0.1-0.4,0.2-0.5,0.3c-0.2,0.1-0.3,0.3-0.5,0.5c-0.1,0.2-0.2,0.4-0.3,0.6c-0.1,0.2-0.1,0.4-0.1,0.6
							c0,0.2,0.1,0.5,0.2,0.7c0.1,0.2,0.3,0.4,0.4,0.5c0.2,0.2,0.4,0.3,0.6,0.3c0.2,0.1,0.5,0.1,0.7,0.1c0.3,0,0.5,0,0.7-0.1
							c0.2-0.1,0.4-0.2,0.5-0.4c0.1-0.2,0.2-0.3,0.3-0.6C70.2,43,70.2,42.8,70.2,42.6z M70.1,37.1c0-0.4-0.1-0.8-0.4-1
							c-0.3-0.3-0.6-0.4-1-0.4c-0.2,0-0.4,0-0.6,0.1c-0.2,0.1-0.3,0.2-0.5,0.3c-0.1,0.1-0.3,0.3-0.3,0.4c-0.1,0.2-0.1,0.4-0.1,0.6
							c0,0.2,0.1,0.4,0.2,0.6c0.1,0.2,0.3,0.3,0.5,0.5c0.2,0.2,0.4,0.3,0.6,0.4c0.2,0.1,0.4,0.2,0.5,0.3c0.1-0.1,0.3-0.2,0.4-0.3
							c0.1-0.1,0.3-0.3,0.4-0.4c0.1-0.1,0.2-0.3,0.3-0.5C70.1,37.4,70.1,37.2,70.1,37.1z"/>
						<path class="st0" d="M115.8,36.3c-0.1,0.2-0.1,0.3-0.2,0.5c-0.1,0.2-0.1,0.3-0.2,0.5c-0.1,0.2-0.2,0.4-0.3,0.7
							c-0.5,1.2-1,2.3-1.6,3.5c-0.5,1.2-1.1,2.4-1.6,3.6h-2c0.3-0.6,0.7-1.3,1.1-2c0.4-0.7,0.8-1.5,1.2-2.3c0.4-0.8,0.8-1.5,1.2-2.3
							c0.4-0.7,0.7-1.4,1-2c-0.3,0-0.6,0-1,0c-0.4,0-0.7,0-1,0c-0.5,0-1,0-1.4,0.1c-0.4,0-0.9,0.1-1.5,0.2c0.1-0.3,0.2-0.6,0.3-0.9
							c0.1-0.3,0.2-0.6,0.3-0.9h5.9v0.8C116,35.9,115.9,36.1,115.8,36.3z"/>
						<path class="st0" d="M123.7,41.7c0,0.5-0.1,0.9-0.2,1.3c-0.2,0.4-0.4,0.8-0.7,1.2c-0.3,0.3-0.6,0.6-1,0.8
							c-0.4,0.2-0.8,0.3-1.3,0.3c-0.7,0-1.3-0.1-1.7-0.4c-0.4-0.3-0.8-0.6-1.1-1c-0.3-0.4-0.4-0.9-0.5-1.5s-0.2-1.1-0.2-1.7
							c0-0.7,0.1-1.4,0.2-2.2c0.1-0.7,0.3-1.4,0.6-2c0.3-0.6,0.7-1.1,1.3-1.4c0.6-0.4,1.3-0.5,2.1-0.5c0.3,0,0.6,0,0.9,0.1
							c0.3,0,0.6,0.1,0.9,0.2c0,0.2,0,0.5,0,0.7s0,0.4,0,0.7c-0.3-0.2-0.6-0.3-0.9-0.4c-0.3-0.1-0.6-0.2-1-0.2
							c-0.5,0-0.9,0.1-1.2,0.4c-0.3,0.3-0.5,0.6-0.7,1c-0.1,0.4-0.2,0.8-0.3,1.3c0,0.5-0.1,0.9-0.1,1.3h0c0.3-0.2,0.6-0.4,1-0.6
							c0.3-0.1,0.7-0.2,1.1-0.2c0.9,0,1.5,0.3,2,0.8S123.7,40.9,123.7,41.7z M121.8,42c0-0.2,0-0.4,0-0.7c0-0.2-0.1-0.4-0.2-0.6
							c-0.1-0.2-0.2-0.3-0.4-0.5c-0.2-0.1-0.4-0.2-0.7-0.2c-0.3,0-0.6,0.1-0.9,0.3c-0.3,0.2-0.5,0.5-0.6,0.7c0,0.1,0,0.2,0,0.3
							c0,0.1,0,0.3,0,0.4c0,0.3,0,0.5,0,0.8c0,0.3,0.1,0.6,0.2,0.8s0.2,0.4,0.4,0.6c0.2,0.2,0.4,0.2,0.7,0.2c0.3,0,0.5-0.1,0.7-0.2
							c0.2-0.2,0.3-0.4,0.4-0.6s0.2-0.5,0.2-0.8S121.8,42.2,121.8,42z"/>
					</g>
					<path class="st0" d="M89.1,90.3c0,0,0,5.8,1.5,8.7s3.1,4.4,3.1,4.4s0.4,0.3,0.9,0.5c0.2,0.1,1,0.3,1.7,0.5c0,0,0,0,0,0
						c0,0,0,0,0,0c0.3,0.1,0.5,0.1,0.8,0.2c0,0,0,0,0,0v0c0.6,0.1,1,0.2,1,0.2l0,0c0,0,0.1,0,0.1,0c0.5,0.1,1.1,0.1,1.5,0.3
						c0.5,0.3,1,0.3,1.6,0.4c0.5,0.1,1,0.2,1.6,0.2c0.3,0,0.7,0.1,1,0c0.3,0,0.6-0.1,0.9-0.1c0.7,0,1.5,0.1,2.2,0.2
						c3.4,0.2,6.8,0.2,10.2-0.1c0.4,0,0.8-0.1,1.3-0.1c0.1,0,0.2,0.1,0.3,0.1c0.2,0.1,0.4,0.2,0.7,0.2c1-0.1,2.1-0.2,3.1-0.3
						c0.2,0,0.4-0.3,0.6-0.4c0.1-0.1,0.3-0.3,0.4-0.3c1-0.2,2-0.4,3-0.7c0.8-0.2,1.6-0.4,2.5-0.6c0.5-0.1,0.9-0.4,1.1-0.9
						c0.5-1.5,0.7-3.1,0.9-4.6c0.2-1.3,0.2-2.6,0.3-3.9c0.1-4.7,0.2-9.4-0.7-14c-0.1-0.7-0.3-1.4-0.5-2.1c-0.1-0.5-0.5-0.8-1-0.9
						c-0.6-0.1-1.2-0.3-1.8-0.5c-1.1-0.3-2.3-0.5-3.4-0.8c-0.4-0.1-0.8,0-1.1-0.5c0-0.1-0.2-0.2-0.4-0.2c-0.9-0.1-1.9-0.3-2.8-0.4
						c-0.2,0-0.4,0.1-0.6,0.1c-0.2,0-0.4,0.1-0.6,0.1c-2-0.1-4-0.3-6.1-0.4c-2.4-0.1-4.7,0-7.1,0.3c-0.4,0-0.8,0.1-1.3,0.1
						c-1.5-0.2-3,0.1-4.4,0.7c-0.2,0.1-0.4,0.1-0.5,0.1c-0.4,0.1-0.8,0.1-1.2,0.2c-1.3,0.3-2.7,0.6-4,1c-0.5,0.1-1,0.4-1.4,0.8
						c-1,1.2-1.6,2.6-2,4.1c-0.5,1.5-0.8,3.1-1,4.7C89.3,87.7,89.1,89,89.1,90.3L89.1,90.3z M93.9,94.5c-1.1-0.1-2.3-0.2-3.4-0.2
						c-0.2,0-0.4,0-0.4-0.4c0.4,0.1,0.7,0.1,1,0.1c1.3,0.1,2.6,0.1,3.9,0.2c0.5,0,1,0.1,1.6,0.1c0.1,0,0.2,0.1,0.3,0.2
						c-0.1,0.1-0.2,0.2-0.3,0.2C95.6,94.6,94.7,94.5,93.9,94.5z M94.2,98.2c-1.1-0.1-2.2-0.3-3.3-0.4c-0.2,0-0.4-0.1-0.3-0.5
						c0.2,0,0.4,0.1,0.5,0.1c0.8,0.1,1.5,0.2,2.3,0.3c1.3,0.1,2.5,0.3,3.8,0.4c0.3,0,0.3,0.2,0.2,0.4C96.3,98.4,95.3,98.3,94.2,98.2
						z M92.3,100.3c-0.1,0-0.2-0.2-0.4-0.3c0,0,0-0.1,0.1-0.1c0.3,0.1,0.7,0.1,1,0.2c1,0.2,1.9,0.4,2.9,0.5c0.6,0.1,1.2,0.2,1.9,0.3
						c0.2,0,0.3,0.2,0.4,0.3c0,0.1-0.1,0.1-0.1,0.2c-0.9-0.1-1.8-0.3-2.6-0.4c-0.7-0.1-1.3-0.2-2-0.4
						C93.1,100.5,92.7,100.4,92.3,100.3z M93.2,101.8c-0.5-0.1-0.6-0.5-0.8-0.9c0.4,0.1,0.8,0.2,1.3,0.3c1.1,0.3,2.3,0.6,3.4,0.8
						c0.4,0.1,0.9,0.1,1.3,0.3c0.2,0.1,0.3,0.4,0.5,0.6c0,0,0,0.1-0.1,0.1c-0.4-0.1-0.8-0.1-1.2-0.2c-1-0.2-2-0.4-3-0.7
						C94.1,102.1,93.6,102,93.2,101.8z M93.9,102.8c1,0.1,5.2,1.1,5.3,1.3C97.4,103.7,95.6,103.3,93.9,102.8z M112.2,105.2
						c-1.5,0-3.1,0-4.6,0c-1.3-0.1-2.5-0.2-3.8-0.4c-0.1,0-0.3-0.1-0.4-0.3c5,0.5,9.9,0.5,14.9,0.2c0,0.1,0,0.1,0,0.2
						c-0.4,0.1-0.8,0.1-1.2,0.2C115.4,105.1,113.8,105.2,112.2,105.2z M122.4,103.6c-0.3,0.1-0.5,0-0.5-0.4c0-0.2-0.1-0.4-0.2-0.7
						c0.9-0.2,1.7-0.3,2.5-0.5c0.8-0.2,1.6-0.4,2.4-0.6c0.4-0.1,0.8-0.2,1.2-0.3c0.2-0.1,0.3,0.1,0.4,0.3c0.1,0.2,0.1,0.4,0.1,0.6
						c0,0.2-0.1,0.3-0.2,0.5c0.1,0,0.3,0,0.5,0.1c0,0.1,0.1,0.3,0.1,0.5c-0.4,0.2-0.7-0.1-1-0.3c-0.1-0.1-0.3-0.2-0.4-0.1
						c-0.7,0.2-1.5,0.4-2.2,0.6C124.2,103.3,123.3,103.4,122.4,103.6z M121.8,101.7c-0.1,0-0.2-0.1-0.3-0.2c0.1-0.1,0.2-0.2,0.3-0.2
						c0.8-0.1,1.6-0.2,2.4-0.3c0.4-0.1,0.8-0.2,1.2-0.2c0,0.1,0,0.2,0.1,0.3c0,0-0.1,0.1-0.1,0.1c-0.9,0.1-1.8,0.3-2.7,0.4
						C122.5,101.7,122.1,101.7,121.8,101.7z M129.1,99.9c0,0-0.1,0-0.1,0c-0.1-1-0.2-1.9-0.3-2.9c-0.3-3.1-0.3-6.2-0.3-9.2
						c0-1.1,0.1-2.3,0.2-3.4c0.1,0.4,0.2,0.7,0.3,1.1c0.7,2.1,0.7,4.2,0.7,6.4c0,1.3-0.1,2.6-0.2,3.9
						C129.4,97.1,129.3,98.5,129.1,99.9z M130.7,82.9c0.1,1,0.2,2,0.2,3.1c0.1,2.5,0.1,4.9,0.1,7.4c0,1-0.1,1.9-0.1,2.9
						c0,0.6-0.1,1.1-0.2,1.7c0.4-5,0.4-10.1-0.1-15.1c0,0,0.1,0,0.1,0C130.6,82.8,130.7,82.8,130.7,82.9z M130.2,80.5
						c-0.1-0.4-0.2-0.7-0.4-1.1c0-0.1-0.1-0.2-0.1-0.3c-0.3-0.4-0.6-0.4-0.8,0c-0.2,0.4-0.4,0.9-0.5,1.3c-0.6,3.1-0.6,6.2-0.6,9.3
						c0,2.3,0.1,4.6,0.2,7c0.1,1.4,0.3,2.8,0.5,4.1c0,0.2,0.1,0.4,0.4,0.5c0.2,0.1,0.3,0.3,0.5,0.4c0.3-0.2,0.4-0.4,0.7-1.5
						c0.2,0.6-0.4,2.5-1,3c-0.2-0.3-0.3-0.7-0.5-1c-0.4-0.8-0.4-1.7-0.6-2.6c-0.1-0.9-0.2-1.8-0.3-2.7c-0.3-3.1-0.3-6.2-0.2-9.2
						c0.1-2.3,0.2-4.7,0.6-7c0.2-0.8,0.4-1.6,0.6-2.4c0.1-0.2,0.2-0.4,0.4-0.6C130,78.4,130.1,79.5,130.2,80.5z M121.5,98.6
						c-0.1,0-0.3-0.1-0.4-0.1c0.1-0.1,0.3-0.2,0.4-0.2c1-0.1,2.1-0.2,3.1-0.3c0.8-0.1,1.6-0.2,2.5-0.3c0,0,0,0,0-0.1
						c0.2,0.1,0.3,0.1,0.5,0.2c-0.2,0.1-0.3,0.2-0.5,0.2c-1,0.1-2.1,0.2-3.1,0.4C123.2,98.4,122.4,98.5,121.5,98.6z M121.3,94.7
						c-0.1,0-0.2-0.1-0.3-0.2c0.1-0.1,0.2-0.1,0.3-0.2c0.2,0,0.4,0,0.7-0.1c1.3-0.1,2.6-0.1,3.8-0.2c0.5,0,1-0.1,1.6-0.2
						c0.1,0.4-0.1,0.4-0.3,0.4c-0.6,0.1-1.1,0.1-1.7,0.1c-1.3,0.1-2.6,0.1-3.9,0.2C121.3,94.7,121.3,94.7,121.3,94.7z M121.2,90.6
						c-0.1,0-0.2,0-0.4,0c0-0.1,0-0.2,0-0.4c0.1,0,0.2,0,0.3,0c1.9,0,3.8,0,5.7,0c0.1,0,0.2,0,0.2,0c0.1,0,0.1,0.1,0.1,0.2
						c0,0.1-0.1,0.2-0.1,0.2c-0.1,0-0.2,0-0.3,0C125,90.6,123.1,90.6,121.2,90.6z M127.3,86.6c-0.3,0-0.6,0-0.8,0
						c-1.8-0.1-3.5-0.2-5.3-0.4c-0.1,0-0.2-0.1-0.3-0.2c0.1,0,0.2-0.1,0.3-0.1c2,0.1,3.9,0.2,5.9,0.3
						C127.2,86.2,127.4,86.3,127.3,86.6z M127.5,84.3c-0.2,0-0.3,0-0.5,0c-1.9-0.2-3.8-0.4-5.7-0.6c-0.1,0-0.3-0.1-0.3-0.2
						c0-0.4,0.1-0.7,0.1-1.1c1.4,0.1,2.8,0.3,4.2,0.4c0.6,0.1,1.3,0.2,1.9,0.3c0.2,0,0.3,0.1,0.3,0.4
						C127.5,83.7,127.5,84,127.5,84.3z M125.4,79.8c0.8,0.1,1.5,0.3,2.3,0.5c0.2,0,0.3,0.1,0.2,0.3c-0.1,0.6-0.2,1.2-0.3,1.8
						c-2.1-0.2-4.3-0.5-6.4-0.7c0.1-0.8,0.2-1.6,0.3-2.5C122.8,79.4,124.1,79.6,125.4,79.8z M121.6,78.7c0.1-0.5,0.2-1.1,0.4-1.7
						c0-0.1,0.2-0.1,0.3-0.1c1.2,0.2,2.4,0.4,3.6,0.7c0.8,0.2,1.7,0.5,2.5,0.7c-0.2,0.6-0.3,1.2-0.4,1.6
						C125.8,79.5,123.7,79.1,121.6,78.7z M124.8,76.5c1,0.2,2,0.5,3,0.7c0.3,0.1,0.6,0.2,0.9,0.3c0,0.1,0,0.1,0,0.2
						c-0.2,0-0.3,0.1-0.5,0.1c-1.2-0.3-2.4-0.6-3.7-0.9c-0.7-0.2-1.4-0.2-2.1-0.4c-0.1,0-0.3-0.1-0.3-0.2c0-0.2,0.1-0.4,0.4-0.3
						C123.4,76.2,124.1,76.3,124.8,76.5z M122.2,75.6c-0.6,0.6-0.7,1.4-0.9,2.2c-0.2,1.3-0.4,2.6-0.6,3.9c-0.5,3.8-0.4,7.6-0.4,11.5
						c0,1.1,0.1,2.2,0.1,3.2c0.2,2.2,0.3,4.3,0.8,6.4c0.1,0.5,0.2,1,0.5,1.5c0.1,0.3,0.4,0.5,0.6,0.8c-0.3,0.1-0.7,0-0.8-0.4
						c-0.3-0.9-0.5-1.7-0.7-2.6c-0.2-1.1-0.4-2.1-0.5-3.2c-0.2-2.2-0.3-4.4-0.4-6.7c-0.1-1.8,0-3.6,0-5.4c0.1-1.9,0.2-3.9,0.4-5.8
						c0.2-1.6,0.4-3.2,0.9-4.7c0.1-0.3,0.2-0.5,0.3-0.7C121.9,75.4,122.1,75.3,122.2,75.6z M115.1,103.4c0.8-0.1,1.6-0.2,2.4-0.2
						c0.1,0,0.2,0.1,0.2,0.1c0.1,0.2,0.1,0.5,0.2,0.7c-0.1,0-0.2,0-0.2,0c-2.5,0.1-5,0.1-7.4,0.2c-0.5,0-0.9,0-1.4,0
						c-1.1,0-2.1-0.1-3.2-0.2c-0.8-0.1-1.7-0.2-2.5-0.3c-0.4,0-0.3-0.4-0.6-0.7c0.4,0,0.7,0,1,0c0.7,0.1,1.4,0.2,2.2,0.2
						c2.5,0.1,4.9,0.1,7.4,0.1C113.8,103.5,114.4,103.4,115.1,103.4z M116.3,101.9c0.3,0,0.6-0.1,0.8-0.1c0.3,0,0.3,0.1,0.4,0.4
						c-0.1,0-0.2,0-0.2,0c-3.6,0.2-7.1,0.3-10.7,0c-1.1-0.1-2.2-0.1-3.3-0.2c-0.3,0-0.7-0.1-1-0.1c-0.1,0-0.2-0.2-0.3-0.3
						c0,0,0-0.1,0.1-0.1c0.5,0,1.1,0.1,1.6,0.1c0.9,0.1,1.8,0.2,2.7,0.2c1.7,0.1,3.5,0.1,5.2,0.1C113.3,102,114.8,101.9,116.3,101.9
						z M116.3,98.6c0.1,0,0.2,0,0.4-0.1c0.1,0,0.3-0.1,0.3,0.2c0,0.1-0.2,0.2-0.3,0.2c-0.9,0-1.9,0.1-2.8,0.1c-3.3,0-6.6,0-9.8,0
						c-0.8,0-1.6-0.1-2.3-0.1c-0.2,0-0.4-0.1-0.3-0.4c0.3,0,0.5,0,0.8,0c1.3,0.1,2.7,0.1,4,0.2c1.7,0,3.5,0.1,5.2,0.1
						C113.1,98.7,114.7,98.6,116.3,98.6z M107.6,94.9c-2.1,0-4.3-0.1-6.4-0.1c-0.3,0-0.3,0-0.3-0.4c0.4,0,0.7,0,1.1,0
						c4.8,0,9.5,0.1,14.3,0.1c0.2,0,0.3,0.1,0.5,0.1c-0.2,0.1-0.3,0.2-0.5,0.2C113.4,94.9,110.5,95,107.6,94.9z M101,90.6
						c-0.2,0-0.5,0-0.4-0.4c0.1,0,0.3,0,0.4,0c5.1,0,10.1,0,15.2,0c0.1,0,0.1,0,0.2,0c0.1,0,0.1,0.1,0.2,0.2
						c-0.1,0.1-0.1,0.2-0.2,0.2c-0.3,0-0.7,0-1,0C110.6,90.6,105.8,90.6,101,90.6z M104.6,85.7c3.3,0,6.5-0.1,9.8-0.1
						c0.7,0,1.4,0.1,2.1,0.1c0.1,0,0.2,0.1,0.3,0.2c-0.1,0.1-0.2,0.2-0.3,0.2c-2.2,0-4.4,0-6.6,0c0,0,0,0,0,0c-2.1,0-4.2,0-6.4,0
						c-0.8,0-1.5,0.1-2.3,0.1c-0.2,0-0.4,0.1-0.4-0.2c0-0.3,0.3-0.2,0.5-0.2C102.3,85.8,103.4,85.7,104.6,85.7z M101.4,83.4
						c-0.1,0-0.2,0-0.4,0c0.1-0.4,0.1-0.8,0.2-1.1c0-0.1,0.2-0.2,0.3-0.2c1.4-0.1,2.7-0.1,4.1-0.2c2.2,0,4.5-0.1,6.7,0
						c1.4,0,2.9,0.1,4.3,0.1c0.3,0,0.4,0.1,0.4,0.5c-0.1,0.9,0,0.9-0.9,0.9c-4.4,0-8.7-0.1-13.1-0.1C102.5,83.3,102,83.4,101.4,83.4
						z M117.1,81.3c-5.2,0-10.4,0-15.7,0c0.1-0.5,0.3-1.1,0.4-1.7c0.1-0.5,0.4-0.6,0.8-0.6c1.1,0,2.2-0.1,3.3-0.2
						c2.9-0.1,5.8-0.1,8.8-0.1c0.8,0,1.7,0,2.5,0c0.3,0,0.4,0.1,0.3,0.4C117.3,80,117.2,80.7,117.1,81.3z M104.6,78.5
						c-0.8,0-1.6,0.1-2.5,0.2c0.2-0.6,0.4-1.2,0.7-1.8c0-0.1,0.2-0.1,0.4-0.2c0.7-0.1,1.4-0.1,2.1-0.2c1.8-0.1,3.7-0.3,5.5-0.3
						c2.4,0,4.8,0.1,7.2,0.2c0.1,0,0.1,0,0.2,0c-0.1,0.6-0.2,1.1-0.4,1.6c-0.1,0.3-0.2,0.4-0.5,0.3c-2.4-0.1-4.8-0.2-7.1-0.1
						C108.3,78.3,106.4,78.4,104.6,78.5z M115.5,75.1c1,0.1,1.9,0.2,2.9,0.3c0,0.6-0.1,0.6-0.6,0.6c-2.3-0.1-4.7-0.2-7-0.2
						c-1.6,0-3.3,0.1-4.9,0.2c-0.8,0-1.6,0.1-2.4,0.2c-0.2,0-0.3,0.1-0.5,0.1c0-0.4,0.3-0.7,0.6-0.8c1-0.1,2-0.3,2.9-0.4
						c0.3,0,0.6,0,0.9,0C110.2,74.9,112.8,75,115.5,75.1z M94.3,77.5c0.8-0.2,1.7-0.4,2.5-0.7c0.7-0.2,1.4-0.3,2.2-0.5
						c-0.1,0.4-0.2,0.6-0.5,0.7c-1.7,0.4-3.5,0.8-5.2,1.2c0,0-0.1,0-0.2,0C93.3,77.7,93.8,77.7,94.3,77.5z M91.7,80
						c0.1-0.2,0.2-0.3,0.3-0.5c0.3-0.7,0.8-0.9,1.4-1c1.2-0.3,2.4-0.6,3.5-0.8c0.5-0.1,1-0.2,1.6-0.3c-0.1,0.4-0.3,0.7-0.4,1.1
						c-0.1,0.6-0.4,0.8-1,0.8c-1,0.1-2,0.3-3.1,0.5c-0.8,0.1-1.6,0.3-2.4,0.5C91.7,80.2,91.7,80.1,91.7,80z M91.3,81.1
						c0-0.1,0.2-0.3,0.3-0.3c0.8-0.2,1.6-0.3,2.4-0.5c0.7-0.1,1.3-0.3,2-0.4c0.5-0.1,1.1-0.2,1.7-0.2c-0.2,0.7-0.3,1.3-0.4,1.8
						c0,0.1-0.2,0.2-0.3,0.2c-1.1,0.1-2.2,0.2-3.2,0.3c-0.8,0.1-1.6,0.3-2.3,0.4c-0.2,0-0.4,0-0.6,0.1C91,81.9,91.2,81.5,91.3,81.1z
						 M90.6,83.6c0-0.1,0.1-0.2,0.2-0.2c1.2-0.2,2.4-0.4,3.7-0.6c0.7-0.1,1.4-0.2,2.2-0.3c0.2,0,0.3,0,0.5,0c0,0.1-0.1,0.3-0.1,0.4
						c0,0.8,0,0.8-0.9,0.8c-1.4,0.1-2.8,0.2-4.3,0.3c-0.5,0-0.9,0.1-1.4,0.1C90.6,83.9,90.6,83.7,90.6,83.6z M90.1,86.7
						c0.1-0.1,0.2-0.2,0.3-0.2c0.7-0.1,1.4-0.2,2.1-0.2c1-0.1,2-0.1,3.1-0.2c0,0,0,0,0,0c0.3,0,0.6,0,1,0c0.1,0,0.1,0.1,0.2,0.1
						c-0.1,0.1-0.1,0.2-0.2,0.2c-0.3,0-0.6,0.1-0.9,0.1c-1.1,0.1-2.3,0.1-3.4,0.2c-0.6,0-1.2,0.1-1.8,0.1
						C90.3,86.8,90.2,86.7,90.1,86.7z M100.5,82.7c0.4-2.5,1-4.9,2.2-7.1c0.1-0.2,0.2-0.3,0.3-0.5c0,0,0.1,0.1,0.1,0.1
						c-1.1,2-1.7,4.1-2.1,6.4c-0.5,2.4-0.7,4.8-0.7,7.3c0,1.5,0,2.9,0.1,4.4c0.1,1.5,0.3,2.9,0.5,4.4c0.2,1.2,0.4,2.3,0.7,3.5
						c0.4,1.4,0.9,2.8,1.6,4c0,0.1,0.1,0.2,0.1,0.2c0,0-0.1,0.1-0.1,0.1c-0.1-0.1-0.3-0.2-0.4-0.3c-0.7-1.1-1.1-2.3-1.5-3.6
						c-0.6-2-0.9-4.1-1.2-6.3c-0.3-2.5-0.3-5-0.2-7.4C100,86,100.2,84.3,100.5,82.7z M93.3,90.2L93.3,90.2c1,0,2,0,3,0
						c0.1,0,0.2,0.1,0.3,0.2c-0.1,0.1-0.2,0.2-0.3,0.2c-2,0-4,0-6,0c-0.1,0-0.2-0.1-0.4-0.2c0.1-0.1,0.2-0.2,0.4-0.2
						C91.3,90.2,92.3,90.2,93.3,90.2z"/>
				</g>
			</g>
			<g>
				<path class="st0" d="M80.2,29.7c0.6-0.2,1.2-0.4,1.7-0.6c0-0.1,0.1-0.3,0.1-0.4c0,0,0.1-0.1,0.1-0.1c-0.7-0.6-1.2-1.3-1.6-2
					c-4.3,2.4-12.3,4.1-12.3-2.7c0-0.9,0.1-1.8,0.3-2.6c2.8,3.6,7.3,5,11.8,5c-0.2-0.3-0.4-0.6-0.6-0.9c-0.4-0.6-0.6-1.2-1-1.6
					c0,0-0.1-0.1-0.2-0.2c-0.5-0.5-0.8-0.9-1.1-1.2c-0.1,0.5-0.1,0.9,0.1,1.4c-3.8-0.2-7.3-1.9-6.2-6.7c0.4-1.9,1.4-3.3,2.3-4.9
					l-0.1-0.1c-0.9,1.1-1.8,2.1-2.6,3.3c-0.5-1.3,0-2.4,0.4-3.8l-0.1,0c-1.6,2.3-1.4,3.3-1,5.5c0,0-0.3,1.5-0.2,2.2
					c-1.4-2.1-2.1-4.7-1.7-7.4c0.4-2.7,1.8-4.7,3.4-6.9l-0.1-0.1c-0.5,0.5-1,1-1.4,1.5c-0.7,0.7-3.4,4.3-3.7,8.5
					c-0.2,2.3,0.4,4.2,1.5,5.9c-0.3,0.5-0.5,1.1-0.7,1.7c-0.9-1.1-0.6-2.3-0.6-3.7l-0.1,0c-1,2.6-0.9,3.2,0.3,5.4l0,0
					c0,0.8,0.1,1.5,0.2,2.2c-1.9-1.6-3.2-3.8-3.5-6.5c-0.2-2.6,0.7-5,1.7-7.5l-0.1-0.1c-1,1.6-1.9,2.9-2.3,4.7
					C59.7,29.9,71.6,32.5,80.2,29.7z"/>
				<path class="st0" d="M77.8,20.1L77.8,20.1c-0.3-0.6-0.5-1.2-0.8-1.8l-0.1,0c0,0.9,0,1.5,0.3,2.1C77.5,20.3,77.7,20.1,77.8,20.1z
					"/>
				<path class="st0" d="M85.4,21.3c-0.8,0.1-1.6,0.1-2.3,0c0.8,0.4,1.6,0.8,2.2,1.4l0.6,0.1c0.4-0.3,0.8-0.6,1.2-0.8
					c0.1-0.3,0.3-0.7,0.6-1.1c0-0.1,0.1-0.1,0.1-0.2c0.3-0.6,0.5-1.2,0.6-1.9l0-0.1c0.9-1.4,1.7-2.9,1.7-4.5c0-0.5-0.1-0.8-0.1-0.9
					c-0.3-1.3-0.9-1.7-1.8-2.5l-0.1,0.1c0.4,0.9,0.9,1.6,0.9,2.6c0,1.1-0.4,2-0.9,2.9c0-0.1-0.1-0.2-0.1-0.3
					c-0.8-1.8-2.4-1.8-4.1-1.9l0,0.1c1.5,0.6,3.5,1.3,3.1,3.5C86.8,19,86.1,20.2,85.4,21.3z"/>
				<path class="st0" d="M86.3,29.6c0.2,0,0.3-0.6-0.4-4.4c-0.7-3.8-7.9-4.4-7.9-4.4s-0.6,0.2-0.4,0.4c0.1,0.3,0.7,0.9,1.7,1.9
					c1,1,1.7,3.4,3.4,4.9C84.4,29.6,86.1,29.6,86.3,29.6z M80.7,22.3L79,21.6l1.3,0.2c0,0,5,0.8,5.4,6.5c0,0-1.8,0.6-3.4-2
					c0,0,1.9,0.9,2.6,0.9C84.9,27.2,84.2,23.7,80.7,22.3z"/>
				<path class="st0" d="M81.3,16.7l-0.1,0c-0.8,1.2-1.5,2.5-1.1,3.8c0.5,0.1,1,0.2,1.6,0.4C80.4,19.9,81,18.1,81.3,16.7z"/>
			</g>
			<g>
				<path class="st0" d="M113.2,56.2c-2.4,0.2-4,0.4-4,0.4c-1.3-0.6-4.1-1.4-4.2-1.5c0,0,0,0,0,0c-0.5-0.1-1.1-0.3-2.3,1
					c0,0,1.2-3.2-3.6-3.9c0,0-0.5,0-1,0c0.7-0.7,3.4-1.2,5.2,0.7c1-1.3,1.6-4.3,0.8-7.5c0,0,0,0,0,0c-1.3-5.6-5-9.2-5.5-9.5
					c-2.1-1.3-2.7-2.1-3.3-2.7c-6.2,3-7.6-2.3-7.6-2.3c2.3,3.7,6.5,1.7,7.8,1.1c0.4-0.4,1.1-1.2,2-2.1c1.4-1.4,3.1-1.6,5.4-1.9
					c2.4-0.3,1.5-1.7,1.5-1.7l-2.7-0.3c0,0,2.4-0.9,3.5-1.5c1.1-0.6-1.9-3.2-1.9-3.2c-2.8,0.3-0.7,0.3-7.2-0.1
					c-2.3-0.2-5.5-0.3-8,0.8c-0.9,0.5-1.6,0.9-2.4,1.6c1.5,1.8,1.5,6.8,1.2,6.9c-0.2,0-2.5-0.1-4.4-1.7c-0.1,0.3-0.1,0.3-0.1,0.6
					c0,3.5,0.4,6.6,0.8,9.1l0,0l0.3,1.6c0.2,3.7,0.7,6,0.7,6c0,0.3-1.5,3.1-7.9,5.4c-3.2,1.2-6.6,1.2-9.9,2
					c-2.2,0.5-3.8,1.9-5.7,3.3c-1.4,1.1-2.9,2-4.5,2.6c-1.2,0.4-4.9,1.3-7.6-0.5c-0.4-0.3,0.2,3.3,2,4.9c0.5,0.5,2,1.5,3.5,1.2
					c0.5-0.1,1.4-0.5,1.6,0.1c0.2,0.5,0,1.4,0,2c0,0.5,0,1,0.1,1.4c-0.6,1.4-1.2,2.7-1.6,3.6c-1.4,3-1.8,6.9-1.9,8.8
					c-0.1,1.9-0.4,1.6-1.6,2.5c-1.2,0.8-2.9,1.2-3.2,1.5c-0.4,0.3,0.2,1.9,0.2,3.9c0,2-2.9,12.7-2.9,13.1c0,0.4,1-0.2,1.6-0.3
					c0.6-0.1-0.5,2.1-0.4,2.6c0.1,0.5,0.5,1.5,2.2,2.4c0.6,0.3,1.1,0.4,1.6,0.3c-0.1-2.5-0.8-3.7-0.8-3.7c1.1,0.9,1.5,2.5,1.6,3.5
					c0.4-0.2,0.7-0.4,0.7-0.4c-0.1-1.5-1.1-3.7-2.7-5.4c-1.6-1.8,0.6-8.6,1.4-11.8c0.8-3.2,5.5-3.8,6.5-4.2c0.9-0.4,1.3,0.1,2.3-1.3
					c1.3-1.7,2.5-3.6,3.5-5.5c0.5-1.4,1-3.1,1.1-5.1c0.3-4.7,0.1-4.3-0.1-5.5c0.6,1.2,1.3,5.1,0,8.7c3.2-4.2,10-6.7,14.7-7.6
					c0.9,0,2.2,0.3,2.7,0.4c2.7,0.5,5.8,1,8.6,1.1c1.3-0.1,4.3-0.6,5.1-1.4c-2.7-1.1-4.5-3.8-4.4-5c0.5,0.7,1,1.3,1,1.3
					c3.5,3.2,6,2.5,7.2,1.7c0.3-0.2,1.2-1.1,1.4-1.3c1.8-1.9,2.8-3.3,5.4-4.4c0,0,0.1,0,0.1,0c1.8,0.1,7.6-1.8,7.9-1.4
					c0.4,0.4,0.4,7.4,0.2,7.5c-0.3,0.2,1.3,0.9,0.9,1.8c-0.5,0.8-2.7,0.3-3.4,1c-0.7,0.7-1.8,4.6-1.8,4.6s0.3,0,2.5-1
					c2.2-0.9,3.7-1.9,3.7-1.9c1.4-3.4,0.9-9.8,2.2-12.2C118.6,57.2,115.6,56,113.2,56.2z M101.8,23.6c0.1-0.4,0.4-1.1,1-1.4
					c0,0-0.9,1.7,0.9,1.7C105.5,24,101.3,24.9,101.8,23.6z M93.9,24.1l-0.6,0.7c-2.1,1.7-3.4,0.6-3.4,0.6
					C90.4,23.5,92.8,22.5,93.9,24.1z M88.6,27.9c0.4-1.5,1.1-1.8,1.1-1.8s3.6,1.2,4.8-1.8c0,0-0.2-0.1-0.8-1.2
					c-0.9-1.6,1.3,0.8,2.3,1.1l4.9,0.7c0,0-2.5,0.2-5.7,1.2c-3.2,1-4.1,3-4.1,3S88.3,29.4,88.6,27.9z M49.3,86.2c0,2.1-1,4.9-1,4.9
					c0.7-3.6,0.1-5.9,0.1-5.9c3.2,0.7,6.2-2.7,7.7-5C53.8,86.2,49.3,86,49.3,86.2z M58.7,60.8c-1.6,1-4,1.8-7.4,1.8
					c-0.3-0.4-0.6-1-0.8-1.5c1.8,0.4,5.1,0.1,6.2-0.3c2-0.7,3.7-1.8,4.9-2.8c0.3-0.2,0.5-0.4,0.8-0.6c0.2-0.1,0.3-0.3,0.5-0.4
					C62.8,57.2,62,58.6,58.7,60.8z M63.7,66.3C63.9,60,81.8,52,85.3,61.9C78.4,55.4,64.6,62.2,63.7,66.3z M114.7,70.5
					c-0.2,0.2-0.4,0.3-0.7,0.4c-0.4,0.2-1,0.2-1.5,0.2c-0.4,0-0.8,0.1-1.1,0.2c-0.1,0-0.1,0.1-0.1,0.1c-0.2,0.2-0.5,1-0.9,1.9
					c-0.1,0.1-0.3,0.1-0.4,0.1c0.4-1.3,0.9-2.5,1.2-2.8c0,0,0,0,0.1-0.1c0.3-0.1,0.7-0.1,1.1-0.2c0.5,0,1-0.1,1.5-0.3
					c0.4-0.1,0.7-0.4,0.9-0.7c0.1-0.2,0.2-0.3,0.2-0.5c0,0,0,0,0,0.1C114.9,69.6,114.8,70.1,114.7,70.5z M116.7,59L116.7,59
					c-0.2-0.3-1.7-1.5-4.1-1.2c-2,0.2-3.7,0.4-3.7,0.4l-0.4,0.1l-0.3-0.1c-1.1-0.6-3.5-1.2-4-1.4c-0.3,0-0.5-0.2-0.8-0.1
					c0.1-0.1,0.4-0.5,0.6-0.5c0.2-0.1,0.5-0.2,0.9-0.2c0.5,0.1,2.9,0.8,4,1.4l0.3,0.1l0.3-0.1c0,0,1.8-0.2,3.8-0.4
					c1.4-0.1,3,0.3,3.4,1C116.8,58.2,116.8,58.7,116.7,59z"/>
				<path class="st0" d="M86.8,27.3L86.8,27.3C86.8,27.3,86.8,27.3,86.8,27.3C86.8,27.3,86.8,27.3,86.8,27.3z"/>
				<path class="st0" d="M68.1,98.4c-1-1.5-1.5-3-2.8-4.7c-1.3-1.7-1.3-3.1-0.9-4.6c0.4-1.5,4.1-6.2,4.7-6.9
					c0.5-0.7,0.1-1.1-1.2-3.2c-0.6-1-1.3-2.5-1.6-3.6c-1.2,0.3-2.7,2.3-3.7,3.9c-0.8,1.5-1.3,2.3-1.3,2.3s0.7,1.1,1.4,2.3
					c0.7,1.2,0,1.8-1,3.4c-0.8,1.4-1.7,2.3-1,3.3c0.2,0.4,0.7,1,2.4,3.6c1.7,2.6,1.5,4.8,1.8,5.3c0.3,0.4,0.8-0.2,1.3-0.1
					c0.5,0.1,0,1-0.1,1.5c-0.2,0.4,1,1.3,2.1,2.4c0.2,0.2,0.3,0.3,0.5,0.4l0.3-2.4c0,0,0.4,1.5,0.6,3c0.3,0.1,0.6,0.1,0.7,0
					c0.3-0.2-0.1-2.1-0.7-3.3C68.9,99.8,69.1,99.9,68.1,98.4z M63.1,92.9l-1.6-2.6c0,0-0.4-0.3,0.2-1.4c2.3-4.9,2.7-2.7,0.3-7.2
					c0,0,3.5,1.9,2.7,3.7c-1.2,2.7-2.8,3.9-2.1,4.9C63.2,91.3,63.1,92.9,63.1,92.9z"/>
				<path class="st0" d="M84.2,70.6c-0.6,2.5-2.6,11.6-3.1,15.2c-0.1,0.7-0.4,2.3-0.5,3c-0.6,4.1-2.9,11.1-2.9,11.1
					c0,0-0.6,2.6-0.1,2.3c0.5-0.3,1.1-1.3,1.4-0.9c0.3,0.4-0.4,3-0.4,3l5.2,0.1c0,0-0.1-1.7-1.2-3c-1-1.2-1.7,0.1-1.9-1.7
					c-0.2-1.7,1-6.3,1.4-7.7c0.4-1.8,1.6-4.8,2.3-6.4c1.3-3,6.1-14,6.4-14.6C90.9,71,86.8,71.2,84.2,70.6z M80.5,103.5h-0.9
					c0.3-1.3,0.3-1.9,0.3-2.3c0.2,0,0.4,0.1,0.5,0.3C80.4,101.6,80.7,101.9,80.5,103.5z M86.5,78c-0.6,1.3-0.9,2.3-1.2,3.2
					c-0.4,1.2-0.7,2.2-1.5,3.5c0.7-1.5,1-2.6,1.3-3.9c0.3-1,0.5-2,1-3.4c0.3-0.8,1.5-5.9,1.5-5.9c0.5,0,0.9,0.1,1.3,0
					C88.7,72.3,87.1,76.6,86.5,78z"/>
			</g>
		</g>
		<path class="st0" d="M21.8,119.1c0,1.5,0,3,0,4.4c0,1.4,0,2.8-0.1,4.1c-0.1,1.3-0.2,2.6-0.3,3.9c-0.2,1.2-0.4,2.4-0.7,3.5
			c-0.2,0.8-0.5,1.6-0.8,2.5c-0.4,0.9-0.8,1.7-1.4,2.5c-0.6,0.8-1.2,1.4-2,1.9c-0.8,0.5-1.8,0.8-2.9,0.8H13c-0.1,0-0.1,0-0.2,0
			c0,0,0.2,0.6,0.4,0.6c0.1,0,0.2,0,0.3,0H14c1.1,0,2.1-0.3,2.9-0.8c0.8-0.5,1.5-1.2,2-1.9c0.6-0.8,1-1.6,1.4-2.5
			c0.4-0.9,0.6-1.7,0.8-2.5c0.3-1.1,0.5-2.3,0.7-3.5c0.2-1.2,0.3-2.5,0.3-3.9c0.1-1.3,0.1-2.7,0.1-4.1c0-1.4,0-2.9,0-4.4h6.4v-0.6
			H21.8z"/>
		<path class="st0" d="M34.3,130.3c0-2.1,0-4.2,0.1-6.4c0.1-2.2,0.1-4.2,0.2-6.8l-0.5-0.4c0,2.3-0.1,4.5-0.2,6.5
			c-0.1,2.2-0.1,4.3-0.1,6.4c0,2,0,4,0.1,6c0.1,2,0.3,4.2,0.6,6.6h-5.5l0.4,0.6H35c-0.4-2.4-0.6-4.6-0.6-6.6
			C34.3,134.2,34.3,132.2,34.3,130.3z"/>
		<path class="st0" d="M45.9,131.6c0-2.4,0-4.7,0.1-7.1c0.1-2.4,0.1-4.5,0.2-7.2l-0.5-0.5c-0.1,2.5-0.1,4.9-0.2,7.1
			c-0.1,2.4-0.1,4.8-0.1,7.1c0,1.8,0,3.6,0.1,5.4c0.1,1.8,0.3,3.8,0.6,6h-5.5l0.6,0.6h5.3c-0.3-2.2-0.5-4.1-0.6-6
			C45.9,135.1,45.9,133.3,45.9,131.6z"/>
		<path class="st0" d="M57.7,135.6c0.4-1.6,0.7-3.3,0.9-4.9c0.2-1.6,0.4-3.2,0.4-4.7c0.1-1.5,0.1-2.7,0.1-3.6v-2.7h6v-0.6h-6.4v2.7
			c0,0.9,0,2.1-0.1,3.6c-0.1,1.5-0.2,3-0.4,4.7c-0.2,1.6-0.5,3.3-0.9,4.9c-0.4,1.6-0.9,3.1-1.6,4.3h0.8
			C57,138.2,57.4,137,57.7,135.6z"/>
		<path class="st0" d="M52.7,142.2c-0.1,0.4-0.2,0.9-0.3,1.5c-0.1,0.5-0.2,1.1-0.3,1.6c-0.1,0.5-0.2,1-0.3,1.4
			c-0.1,0.4-0.1,0.8-0.2,1h-2l0.6,0.6h1.9c0-0.2,0.1-0.6,0.2-1c0.1-0.4,0.2-0.9,0.3-1.4c0.1-0.5,0.2-1,0.3-1.6
			c0.1-0.5,0.2-1,0.3-1.5h16.1c0-0.2,0-0.4,0-0.6H52.7z"/>
		<path class="st0" d="M73.3,141.9c-0.2,1-0.5,1.9-0.7,2.7c-0.3,1-0.6,2-0.9,3h-2l0.4,0.6h2c0.3-1,0.6-2,0.9-3
			c0.2-0.9,0.5-1.8,0.7-2.7c0.2-1,0.4-1.5,0.6-2.3l-0.4-0.7C73.8,140.2,73.5,141.2,73.3,141.9z"/>
		<path class="st0" d="M70.3,129.7c0,1.5,0,3.1,0.1,4.8c0,1.7,0.1,3.3,0.3,4.8H71c-0.1-1.3-0.2-2.7-0.2-4.1c0-1.7-0.1-3.3-0.1-4.8
			c0-2.2,0-4.3,0.1-6.5c0.1-2.2,0.1-4,0.2-6.5l-0.5-0.6c0,2.3-0.1,4.5-0.2,6.5C70.3,125.4,70.3,127.6,70.3,129.7z"/>
		<path class="st0" d="M94.8,137l1.5,2.5c-0.8,0.5-1.7,1.2-2.4,1.6c-0.7,0.4-1.4,0.8-2.1,1.1c-0.7,0.3-1.6,0.5-2.4,0.6
			c-0.9,0.1-1.9,0.2-3,0.2c-2.1,0-3.9-0.4-5.4-1.1c-1.4-0.7-2.6-1.7-3.5-2.9c0.1,0.2,0.2,0.4,0.4,0.5c0.9,1.3,2.1,2.3,3.6,3
			c1.5,0.7,3.3,1.1,5.4,1.1c1.1,0,2.2-0.1,3-0.2c0.9-0.1,1.7-0.4,2.4-0.6c0.7-0.3,1.5-0.6,2.1-1.1c0.7-0.4,2.1-1.4,2.9-2l-1.6-2.5
			C95.6,137.2,94.8,137,94.8,137z"/>
		<path class="st0" d="M90.2,119.4c-0.9-0.4-1.9-0.6-3.2-0.6c-1.3,0-2.4,0.3-3.2,1c-0.8,0.7-1.5,1.5-1.9,2.6c-0.5,1-0.8,2.2-0.9,3.4
			c-0.2,1.2-0.2,2.4-0.2,3.6c0,1.3,0.1,2.6,0.2,3.9c0.2,1.3,0.5,2.4,0.9,3.4c0.2,0.4,0.5,0.8,0.8,1.2c-0.1-0.2-0.2-0.4-0.3-0.6
			c-0.5-1-0.8-2.1-0.9-3.4c-0.2-1.3-0.2-2.6-0.2-3.9c0-1.1,0.1-2.3,0.2-3.6c0.2-1.2,0.5-2.4,0.9-3.4c0.5-1,1.1-1.9,1.9-2.6
			c0.8-0.7,1.9-1,3.2-1c1.2,0,2.3,0.2,3.2,0.6c0.9,0.4,1.5,1,2.1,1.6l2-3l-0.1-1.1l-2.3,3.3C91.7,120.2,91,119.8,90.2,119.4z"/>
		<path class="st0" d="M104.1,128.8C104.1,128.8,104.1,128.8,104.1,128.8c0.1-1.8,0.1-3.6,0.2-5.3c0.1-2.2,0.1-4.1,0.2-6.4l-0.5-0.4
			c0,2.1-0.1,4.1-0.2,6.1c-0.1,2.2-0.1,4.5-0.1,6.8c0,2.2,0,4.3,0.1,6.4c0.1,2.1,0.3,4.2,0.6,6.3h-5.5l0.4,0.6h5.6
			c-0.3-2.1-0.5-4.2-0.6-6.3c-0.1-2.1-0.1-4.2-0.1-6.4c0-0.4,0-0.9,0-1.3C104.1,128.9,104.1,128.9,104.1,128.8L104.1,128.8z"/>
		<path class="st0" d="M114.1,122.4c-0.7,1-1.5,2-2.3,2.9c-0.8,0.9-1.6,1.7-2.4,2.4c0,0,0,0,0,0c0,0,0,0,0,0
			c0.2,0.1,0.4,0.3,0.6,0.4c0.8-0.6,1.5-1.4,2.3-2.3c0.8-0.9,1.5-1.9,2.3-2.9c0.7-1,1.4-2.1,2-3.2c0.6-1.1,0.8-1.4,1.2-2.4l-0.3-1.1
			c-0.4,0.8-0.9,2-1.4,2.8C115.5,120.3,114.9,121.3,114.1,122.4z"/>
		<path class="st0" d="M129.2,126.1c0.6-1.6,1.1-3.3,1.7-4.9l-0.3-0.9h-0.1c-0.6,1.7-1.2,3.4-1.7,5.1s-1.2,3.4-1.7,5.1h0.7
			C128.2,129,128.7,127.5,129.2,126.1z"/>
		<path class="st0" d="M134.8,133.4C134.8,133.4,134.8,133.5,134.8,133.4l-8.8,0.1l-2.9,8.8h-1.7h-2.1h-4.4l0.5,0.6h4.4h2.1h1.7
			l2.9-8.8h8.6C135,133.9,134.9,133.6,134.8,133.4L134.8,133.4z"/>
		<path class="st0" d="M161.4,119.7c-1.3-0.2-2.5-0.4-3.7-0.5c-1.1-0.1-2.2-0.2-3.1-0.2c-0.8,0-1.3,0-1.7,0c-0.4,0-0.9,0-1.4,0.1
			c0,0.5,0,1.1-0.1,1.8c0,0.7,0,1.4-0.1,2.2c0,0.7,0,1.5-0.1,2.2c0,0.7,0,1.3,0,1.8h0.5c0-0.3,0-0.7,0-1.1c0-0.7,0-1.4,0.1-2.2
			c0-0.7,0-1.5,0.1-2.2c0-0.7,0-1.3,0.1-1.8c0.5,0,1,0,1.4-0.1c0.4,0,1,0,1.7,0c1,0,2,0.1,3.1,0.2c1.1,0.1,2.3,0.3,3.7,0.5
			c0.2-0.6,0.4-1.2,0.6-1.8c0.2-0.6,0.4-1.2,0.6-1.8h-0.7c-0.1,0.4-0.3,0.8-0.4,1.2C161.8,118.5,161.6,119.1,161.4,119.7z"/>
		<path class="st0" d="M163.3,138.9c-0.2,0.4-0.3,0.8-0.5,1.3c-0.2,0.7-0.5,1.4-0.7,2.1h-15.6l0.4,0.6h15.7c0.2-0.7,0.5-1.4,0.7-2.1
			c0.2-0.7,0.5-1.4,0.8-2.1C163.8,138.8,163.6,138.8,163.3,138.9z"/>
		<path class="st0" d="M156.5,130.2c-0.5-0.1-1-0.1-1.4-0.2c-0.5,0-0.9,0-1.3-0.1c-0.4,0-0.9,0-1.4,0h-1.1c0,0.6,0,1.3,0,2.2
			c0,0.8,0,1.7,0,2.5c0,0.9,0,1.7,0.1,2.5c0,0.8,0.1,1.5,0.1,2.2c0.1,0,0.3,0,0.4,0c0-0.5-0.1-1-0.1-1.5c0-0.8-0.1-1.7-0.1-2.5
			c0-0.9,0-1.7,0-2.5c0-0.8,0-1.5,0-2.2h1.1c0.5,0,0.9,0,1.4,0c0.4,0,0.9,0,1.3,0.1c0.5,0,0.9,0.1,1.4,0.2c0.5,0.1,1.1,0.2,1.7,0.3
			l1.3-3.5h-0.7l-1,2.9C157.6,130.4,157,130.3,156.5,130.2z"/>
		<path class="st0" d="M135.5,117.1l-0.7-0.3c0.2,0.6,0.4,1.5,0.8,2.5c0.4,1.4,0.9,3,1.5,4.7c0.6,1.7,1.1,3.6,1.8,5.5
			c0.6,1.9,1.2,3.7,1.8,5.4c0.6,1.7,1.2,3.2,1.7,4.5c0.5,1.3,1,2.3,1.4,2.9h-5.9c0.1,0.3,0.1,0.5,0.2,0.6h6.4
			C141.1,134.9,138.1,126.3,135.5,117.1z"/>
		<g>
			<g>
				<path class="st0" d="M10.4,104.2c10.5-0.3,21.1-0.6,31.6-0.8c0-0.6,0-1,0-1.6c-10.6,0.4-21.1,1-31.6,2
					C10.4,104,10.4,104.1,10.4,104.2z"/>
				<path class="st0" d="M132.9,101.8c0,0.6,0,1,0,1.6c10.5,0.2,21.1,0.5,31.6,0.8c0-0.1,0-0.2,0-0.3
					C154,102.9,143.5,102.2,132.9,101.8z"/>
			</g>
		</g>
		<path class="st0" d="M164.5,155.2c0-0.1,0-0.2,0-0.3c-6.5,0.2-12.9,0.4-19.4,0.5c0,0,0,0,0,0c-38.2,1.1-76.3,1.1-114.5,0
			c0,0,0,0,0,0c-6.7-0.2-13.4-0.3-20.2-0.6c0,0.1,0,0.2,0,0.3c6.7,0.6,13.4,1.2,20.1,1.5c0,0,0,0,0,0c38.2,1.1,76.4,1.1,114.6,0
			c0,0,0,0,0,0C151.6,156.3,158.1,155.9,164.5,155.2z"/>
	</g>
	<g>
		<path class="st1" d="M28,141.7v-23.2h-6.9c0,1.5,0,3,0,4.4c0,1.4,0,2.8-0.1,4.1c-0.1,1.3-0.2,2.6-0.3,3.9
			c-0.2,1.2-0.4,2.4-0.7,3.5c-0.2,0.8-0.5,1.6-0.8,2.5c-0.4,0.9-0.8,1.7-1.4,2.5c-0.6,0.8-1.2,1.4-2,1.9c-0.8,0.5-1.8,0.8-2.9,0.8
			h-0.6c-0.1,0-0.2,0-0.3,0c-0.1,0-0.2,0-0.4,0v-3.5c0.1,0,0.3,0,0.4,0c0.2,0,0.3,0,0.5,0c0.9,0,1.6-0.3,2.2-0.9
			c0.6-0.6,1.1-1.4,1.5-2.4c0.4-1,0.7-2.1,1-3.3c0.2-1.2,0.4-2.4,0.5-3.7c0.1-1.2,0.2-2.4,0.2-3.5c0-1.1,0.1-2.1,0.1-2.8
			c0-0.9,0-1.6,0-2c0-0.5,0-0.9-0.1-1.3c0-0.4-0.1-0.8-0.1-1.2c0-0.4-0.1-1.1-0.2-1.9h15.7c-0.1,2.6-0.1,4.9-0.2,7.1
			c-0.1,2.2-0.1,4.3-0.1,6.4c0,2,0,4,0.1,6c0.1,2,0.3,4.2,0.6,6.6H28z"/>
		<path class="st1" d="M39.5,141.7v-15.8c0-1.6-0.1-3.2-0.2-4.8c-0.1-1.6-0.4-3.5-0.7-5.5H45c-0.1,2.7-0.1,5.3-0.2,7.7
			c-0.1,2.4-0.1,4.8-0.1,7.1c0,1.8,0,3.6,0.1,5.4c0.1,1.8,0.3,3.8,0.6,6H39.5z"/>
		<path class="st1" d="M73.3,138.7c-0.2,0.8-0.4,1.7-0.6,2.6c-0.2,1-0.5,1.9-0.7,2.7c-0.3,1-0.6,2-0.9,3h-2.4c0-0.9,0-1.8,0-2.7
			c0-0.9,0-1.8,0-2.7H52c-0.1,0.4-0.2,0.9-0.3,1.5c-0.1,0.5-0.2,1.1-0.3,1.6c-0.1,0.5-0.2,1-0.3,1.4c-0.1,0.4-0.1,0.8-0.2,1h-2.4
			c-0.1-1.4-0.2-2.8-0.2-4.2c-0.1-1.4-0.1-2.8-0.2-4.2h2.9c0.6-0.6,1.1-1.3,1.5-2.2c0.4-0.9,0.8-1.8,1.1-2.9c0.3-1,0.5-2.1,0.7-3.2
			c0.2-1.1,0.3-2.2,0.4-3.2c0.1-1,0.2-2,0.2-2.9c0-0.9,0.1-1.6,0.1-2.2c0-0.9,0-1.5,0-2c0-0.5,0-0.9,0-1.3c0-0.4-0.1-0.8-0.1-1.3
			c0-0.5-0.1-1.1-0.2-1.9h15.2c-0.1,2.6-0.1,4.9-0.2,7.1c-0.1,2.2-0.1,4.3-0.1,6.5c0,1.5,0,3.1,0.1,4.8c0,1.7,0.1,3.3,0.3,4.8H73.3z
			 M64.5,118.5h-6.4v2.7c0,0.9,0,2.1-0.1,3.6c-0.1,1.5-0.2,3-0.4,4.7c-0.2,1.6-0.5,3.3-0.9,4.9c-0.4,1.6-0.9,3.1-1.6,4.3h9.5V118.5z
			"/>
		<path class="st1" d="M93.2,140.4c-0.7,0.4-1.4,0.8-2.1,1.1c-0.7,0.3-1.5,0.5-2.4,0.6c-0.9,0.1-1.9,0.2-3,0.2
			c-2.1,0-3.9-0.4-5.4-1.1s-2.7-1.7-3.6-3c-0.9-1.3-1.6-2.7-2-4.4c-0.4-1.7-0.6-3.4-0.6-5.3c0-2,0.3-3.8,0.8-5.5
			c0.5-1.7,1.3-3.1,2.3-4.4c1-1.2,2.3-2.2,3.9-2.9c1.6-0.7,3.4-1,5.6-1c0.9,0,1.7,0,2.4,0.1c0.7,0.1,1.3,0.2,1.8,0.3
			c0.6,0.1,1.1,0.3,1.7,0.6c0.6,0.2,1.2,0.5,1.9,0.8l-2.2,3.4c-0.6-0.6-1.4-1.2-2.4-1.6c-0.9-0.4-2-0.6-3.2-0.6
			c-1.4,0-2.5,0.3-3.3,1c-0.9,0.7-1.5,1.6-2,2.6c-0.5,1.1-0.8,2.2-1,3.5c-0.2,1.3-0.3,2.5-0.3,3.6c0,1.3,0.1,2.7,0.2,4
			c0.2,1.3,0.5,2.5,1,3.5c0.5,1,1.2,1.8,2.1,2.4c0.9,0.6,2.2,0.9,3.7,0.9c1.3,0,2.6-0.3,3.7-0.9c1.2-0.6,2.1-1.4,2.9-2.3l1.7,2.9
			C94.6,139.6,93.9,140,93.2,140.4z"/>
		<path class="st1" d="M97.8,141.7v-15.8c0-1.7-0.1-3.4-0.2-5.2c-0.1-1.7-0.4-3.4-0.7-5.2h6.4c-0.1,2.3-0.1,4.5-0.2,6.8
			c-0.1,2.2-0.1,4.5-0.1,6.8c0,2.2,0,4.3,0.1,6.4c0.1,2.1,0.3,4.2,0.6,6.3H97.8z M114.1,141.7c-0.6-0.6-1.3-1.4-1.9-2.2
			c-0.6-0.9-1.2-1.7-1.8-2.7c-0.6-0.9-1.2-1.8-1.8-2.8c-0.6-0.9-1.2-1.8-1.8-2.5c-0.5-0.6-1-1.2-1.5-1.7c-0.5-0.5-1.1-1-1.7-1.5
			v-0.1c0.9-0.5,1.9-1.3,2.9-2.3c1-1,1.9-2.2,2.8-3.4c0.9-1.2,1.6-2.5,2.2-3.7c0.6-1.2,1-2.3,1.1-3.3h4.6c-0.4,1-0.9,2-1.5,3.1
			c-0.6,1.1-1.3,2.1-2,3.2c-0.7,1-1.5,2-2.3,2.9c-0.8,0.9-1.6,1.7-2.4,2.4c0,0,0,0,0,0c0,0,0,0,0,0c0.9,0.6,1.9,1.6,3,2.8
			c1,1.3,2.1,2.6,3.1,4.1c1.1,1.5,2.1,2.9,3.1,4.2c1,1.4,1.9,2.5,2.7,3.3H114.1z"/>
		<path class="st1" d="M136.8,141.7c-0.1-0.3-0.1-0.6-0.2-1c-0.1-0.4-0.2-0.8-0.4-1.3c-0.1-0.5-0.3-1-0.4-1.5
			c-0.2-0.5-0.3-1-0.5-1.5c-0.4-1.1-0.7-2.3-1.2-3.6v0c0,0,0,0.1,0,0.1h-8.8l-2.9,8.8h-3.8c0.3-0.4,0.8-1.3,1.3-2.5
			c0.5-1.2,1.1-2.7,1.7-4.4c0.6-1.7,1.3-3.5,2-5.4c0.7-1.9,1.3-3.8,1.9-5.6s1.2-3.4,1.7-4.9c0.5-1.5,0.9-2.6,1.2-3.4h5.6
			c0.2,0.7,0.5,1.8,0.9,3.2c0.4,1.4,0.9,3,1.5,4.7c0.6,1.7,1.1,3.6,1.8,5.5c0.6,1.9,1.2,3.7,1.8,5.4c0.6,1.7,1.2,3.2,1.7,4.5
			c0.5,1.3,1,2.3,1.4,2.9H136.8z M133.3,130L133.3,130c-0.4-1.6-0.9-3-1.4-4.4l-1.9-6h-0.1c-0.6,1.7-1.2,3.4-1.7,5.1
			c-0.6,1.7-1.2,3.4-1.7,5.1L133.3,130L133.3,130z"/>
		<path class="st1" d="M163,137.5c-0.3,0.7-0.5,1.4-0.8,2.1c-0.2,0.7-0.5,1.4-0.7,2.1h-16.1v-15.8c0-1.6-0.1-3.2-0.2-4.8
			c-0.1-1.6-0.3-3.5-0.7-5.5H162c-0.2,0.6-0.4,1.2-0.6,1.8c-0.2,0.6-0.4,1.2-0.6,1.8c-1.3-0.2-2.5-0.4-3.7-0.5
			c-1.1-0.1-2.2-0.2-3.1-0.2c-0.8,0-1.3,0-1.7,0c-0.4,0-0.9,0-1.4,0.1c0,0.5,0,1.1-0.1,1.8c0,0.7,0,1.4-0.1,2.2c0,0.7,0,1.5-0.1,2.2
			c0,0.7,0,1.3,0,1.8h8.2l-1.3,3.5c-0.6-0.1-1.2-0.2-1.7-0.3c-0.5-0.1-1-0.1-1.4-0.2c-0.5,0-0.9,0-1.3-0.1c-0.4,0-0.9,0-1.4,0h-1.1
			c0,0.6,0,1.3,0,2.2c0,0.8,0,1.7,0,2.5c0,0.9,0,1.7,0.1,2.5c0,0.8,0.1,1.5,0.1,2.2c0.8,0,1.5,0.1,2.1,0.1c0.6,0,1.3,0,2.1,0
			c1,0,2.1-0.1,3.5-0.4C160,138.2,161.4,137.9,163,137.5z"/>
	</g>
</g>
</svg>
